<?xml version="1.0" standalone="no"?>
<!DOCTYPE svg PUBLIC "-//W3C//DTD SVG 20010904//EN"
 "http://www.w3.org/TR/2001/REC-SVG-20010904/DTD/svg10.dtd">
<svg version="1.0" xmlns="http://www.w3.org/2000/svg"
 width="700.000000pt" height="700.000000pt" viewBox="0 0 700.000000 700.000000"
 preserveAspectRatio="xMidYMid meet">
<metadata>
Created by potrace 1.11, written by Peter Selinger 2001-2013
</metadata>
<g transform="translate(0.000000,700.000000) scale(0.100000,-0.100000)"
fill="#000000" stroke="none">
<path d="M1250 6539 c-126 -14 -248 -70 -334 -153 -85 -82 -131 -159 -162
-271 -16 -55 -17 -222 -18 -2092 -2 -1610 1 -2045 11 -2095 17 -87 82 -213
141 -275 59 -62 154 -125 225 -149 29 -10 59 -20 67 -23 8 -3 1039 -7 2290 -8
1633 -3 2294 0 2342 8 132 21 272 110 353 223 54 76 80 135 98 223 20 98 21
4063 1 4163 -43 208 -211 381 -425 436 -59 15 -250 17 -2299 18 -1229 0 -2260
-2 -2290 -5z m4593 -243 c98 -47 170 -135 197 -236 10 -37 18 -574 11 -775
l-1 -30 -2547 -1 c-1402 0 -2550 3 -2553 8 -3 4 -5 180 -4 390 1 329 4 389 18
428 42 112 108 183 213 226 l58 24 2275 -3 2275 -2 58 -29z m205 -1263 c4 -6
7 -694 6 -1530 0 -1380 -2 -1523 -17 -1573 -31 -104 -103 -186 -205 -233 l-47
-22 -2272 -3 -2272 -2 -55 21 c-106 39 -179 115 -222 229 -16 41 -17 167 -18
1580 -1 1199 2 1536 11 1540 26 11 5085 3 5091 -7z"/>
<path d="M1734 4289 c-50 -8 -84 -50 -84 -102 0 -31 7 -46 33 -72 l33 -33 148
1 148 2 29 33 c45 50 34 130 -23 161 -26 13 -218 20 -284 10z"/>
<path d="M2758 4277 c-73 -37 -70 -150 4 -182 40 -16 273 -18 303 -2 73 39 79
138 10 183 -39 26 -265 26 -317 1z"/>
<path d="M3860 4292 c-92 -11 -131 -107 -71 -174 l29 -33 152 0 152 0 29 33
c45 51 34 130 -24 161 -23 12 -199 21 -267 13z"/>
<path d="M4907 4289 c-103 -17 -127 -148 -35 -192 46 -22 269 -22 311 0 67 34
68 135 3 178 -25 17 -208 26 -279 14z"/>
<path d="M1704 3450 c-33 -13 -54 -50 -54 -95 0 -89 40 -108 224 -103 131 3
136 4 162 30 19 18 28 39 30 69 2 37 -2 47 -31 76 l-33 33 -138 -1 c-77 0
-149 -4 -160 -9z"/>
<path d="M2742 3435 c-40 -34 -49 -75 -25 -122 27 -55 50 -63 196 -63 145 0
180 11 202 63 22 53 -2 119 -51 137 -14 6 -85 10 -159 10 -128 0 -135 -1 -163
-25z"/>
<path d="M3808 3443 c-63 -39 -65 -129 -4 -171 29 -20 44 -22 170 -22 l138 0
34 34 c51 51 44 124 -16 159 -41 24 -283 24 -322 0z"/>
<path d="M4861 3444 c-60 -42 -58 -138 2 -174 27 -17 51 -20 160 -20 95 0 136
4 157 15 50 26 68 77 46 130 -25 59 -44 65 -201 65 -114 0 -145 -3 -164 -16z"/>
<path d="M3940 2640 c-122 -5 -150 -15 -169 -57 -24 -52 -1 -120 46 -142 14
-6 83 -11 159 -11 l136 0 34 34 c39 39 45 80 17 127 -28 47 -67 56 -223 49z"/>
<path d="M1703 2630 c-51 -21 -71 -103 -39 -153 28 -42 62 -49 210 -45 131 3
136 4 162 30 19 18 28 39 30 67 2 35 -3 46 -30 76 l-33 35 -139 -1 c-77 0
-149 -4 -161 -9z"/>
<path d="M2742 2615 c-37 -31 -49 -83 -27 -124 28 -56 46 -61 201 -61 l142 0
31 29 c17 16 31 37 32 48 0 10 2 25 4 35 5 24 -31 77 -61 88 -14 6 -85 10
-159 10 -128 0 -135 -1 -163 -25z"/>
<path d="M543 832 c-25 -20 -38 -61 -29 -97 7 -27 52 -55 89 -55 26 0 67 33
67 55 0 22 -14 18 -38 -10 -25 -29 -39 -31 -70 -9 -32 22 -30 78 3 100 23 15
65 12 65 -6 0 -12 29 -20 35 -10 3 5 -3 18 -15 30 -25 25 -77 26 -107 2z"/>
<path d="M1093 843 c-7 -3 -13 -11 -13 -18 0 -7 -6 -16 -12 -19 -10 -5 -10 -7
0 -12 6 -3 12 -23 12 -44 0 -21 3 -45 6 -54 7 -17 54 -22 54 -6 0 6 -7 10 -15
10 -11 0 -15 12 -15 45 0 33 4 45 15 45 8 0 15 5 15 10 0 6 -6 10 -14 10 -8 0
-16 8 -18 18 -2 11 -9 17 -15 15z"/>
<path d="M1400 818 c0 -25 -3 -29 -12 -20 -31 31 -88 -1 -88 -49 0 -47 25 -68
80 -67 l50 1 0 84 c0 67 -3 83 -15 83 -10 0 -15 -10 -15 -32z m-10 -47 c15
-30 12 -49 -11 -61 -25 -14 -49 2 -49 34 0 43 41 61 60 27z"/>
<path d="M1530 767 l0 -84 49 -1 c55 -1 70 10 77 57 7 42 -27 75 -67 67 -26
-5 -29 -3 -29 19 0 16 -6 25 -15 25 -12 0 -15 -16 -15 -83z m81 13 c23 -13 25
-53 3 -71 -33 -27 -72 33 -44 67 15 17 16 17 41 4z"/>
<path d="M1905 774 c-17 -43 -31 -81 -33 -86 -2 -4 4 -8 12 -8 9 0 20 10 25
22 6 17 17 23 44 24 30 1 36 -2 41 -22 4 -15 14 -24 25 -24 18 0 17 6 -14 83
-45 111 -60 113 -100 11z m53 -22 c-28 -5 -30 0 -16 39 l11 33 12 -34 c11 -32
10 -35 -7 -38z"/>
<path d="M2200 840 c0 -5 7 -10 15 -10 8 0 15 5 15 10 0 6 -7 10 -15 10 -8 0
-15 -4 -15 -10z"/>
<path d="M2260 765 c0 -69 3 -85 15 -85 12 0 15 16 15 85 0 69 -3 85 -15 85
-12 0 -15 -16 -15 -85z"/>
<path d="M690 744 c0 -50 3 -64 15 -64 11 0 15 12 15 44 0 37 5 48 27 64 l26
19 -41 0 -42 0 0 -63z"/>
<path d="M790 790 c-56 -56 21 -143 86 -96 26 20 10 32 -21 16 -20 -11 -27
-11 -40 0 -23 19 -18 30 13 29 59 -3 72 0 65 19 -19 52 -67 68 -103 32z m68
-17 c2 -9 -7 -13 -28 -13 -28 0 -31 2 -20 15 15 18 41 16 48 -2z"/>
<path d="M929 790 c-23 -19 -23 -19 -3 -20 11 0 25 5 31 11 13 13 43 5 43 -10
0 -5 -18 -12 -40 -16 -27 -4 -41 -13 -45 -26 -11 -33 12 -48 69 -47 l53 1 -5
51 c-2 28 -9 57 -14 64 -15 18 -63 15 -89 -8z m71 -64 c0 -18 -39 -31 -52 -18
-15 15 0 32 28 32 14 0 24 -6 24 -14z"/>
<path d="M1180 788 c-25 -28 -26 -62 0 -88 24 -24 63 -26 85 -4 22 22 11 30
-20 14 -20 -11 -27 -11 -40 0 -24 20 -18 29 23 28 58 -1 62 1 55 20 -19 53
-68 68 -103 30z m68 -15 c2 -9 -7 -13 -28 -13 -28 0 -31 2 -20 15 15 18 41 16
48 -2z"/>
<path d="M1675 793 c4 -10 15 -42 25 -70 19 -52 19 -53 -1 -63 -24 -14 -25
-30 0 -30 25 0 35 14 65 94 30 79 31 86 12 86 -7 0 -19 -20 -27 -47 l-13 -47
-19 47 c-11 26 -26 47 -34 47 -10 0 -13 -6 -8 -17z"/>
<path d="M2050 745 c0 -51 3 -65 15 -65 11 0 15 12 15 44 0 44 19 74 40 61 5
-3 10 -28 10 -56 0 -38 4 -49 15 -49 13 0 15 11 13 56 -3 66 -23 88 -58 66
-12 -7 -20 -8 -20 -2 0 5 -7 10 -15 10 -12 0 -15 -14 -15 -65z"/>
<path d="M2200 745 c0 -51 3 -65 15 -65 12 0 15 14 15 65 0 51 -3 65 -15 65
-12 0 -15 -14 -15 -65z"/>
<path d="M533 573 c-4 -10 -11 -22 -17 -26 -8 -6 -7 -10 2 -14 7 -3 12 -25 12
-59 0 -41 4 -54 15 -54 11 0 15 13 15 54 0 34 5 56 13 59 9 4 8 8 -3 16 -12 9
-12 11 3 17 9 3 14 10 11 15 -9 16 -44 10 -51 -8z"/>
<path d="M1120 505 c0 -69 3 -85 15 -85 12 0 15 14 15 63 l0 62 38 -62 c22
-38 44 -63 55 -63 15 0 17 11 17 85 0 69 -3 85 -15 85 -12 0 -15 -14 -15 -62
l0 -63 -38 62 c-22 38 -44 63 -54 63 -16 0 -18 -11 -18 -85z"/>
<path d="M1800 505 c0 -69 3 -85 15 -85 10 0 15 11 15 35 0 35 0 35 45 35 50
0 72 23 59 63 -10 31 -22 37 -81 37 l-53 0 0 -85z m88 59 c17 -3 22 -10 20
-27 -2 -18 -11 -23 -40 -25 -36 -3 -38 -2 -38 26 0 30 12 35 58 26z"/>
<path d="M2200 580 c0 -5 7 -10 15 -10 8 0 15 5 15 10 0 6 -7 10 -15 10 -8 0
-15 -4 -15 -10z"/>
<path d="M2563 583 c-7 -3 -13 -11 -13 -18 0 -7 -6 -16 -12 -18 -10 -4 -10 -7
-1 -14 6 -5 13 -31 15 -58 3 -46 5 -50 31 -53 29 -4 37 12 12 22 -10 3 -15 19
-15 46 0 29 4 40 15 40 8 0 15 5 15 10 0 6 -6 10 -14 10 -8 0 -16 8 -18 18 -2
11 -9 17 -15 15z"/>
<path d="M600 484 c0 -49 3 -64 14 -64 11 0 16 14 18 47 2 38 8 50 26 59 28
14 19 21 -25 22 l-33 1 0 -65z"/>
<path d="M700 530 c-11 -11 -20 -31 -20 -45 0 -14 9 -34 20 -45 11 -11 31 -20
45 -20 14 0 34 9 45 20 11 11 20 31 20 45 0 14 -9 34 -20 45 -11 11 -31 20
-45 20 -14 0 -34 -9 -45 -20z m68 -12 c32 -32 1 -89 -37 -68 -26 13 -28 55 -3
69 22 13 26 13 40 -1z"/>
<path d="M830 485 c0 -51 3 -65 15 -65 11 0 15 12 15 49 0 35 4 51 16 55 26
10 34 -3 34 -55 0 -37 4 -49 15 -49 11 0 15 12 15 49 0 35 4 51 16 55 26 10
34 -3 34 -55 0 -37 4 -49 15 -49 19 0 21 100 3 118 -14 14 -54 16 -63 2 -4 -6
-13 -5 -25 3 -16 9 -24 9 -40 -1 -12 -7 -20 -8 -20 -2 0 5 -7 10 -15 10 -12 0
-15 -14 -15 -65z"/>
<path d="M1310 530 c-11 -11 -20 -31 -20 -45 0 -14 9 -34 20 -45 11 -11 31
-20 45 -20 14 0 34 9 45 20 11 11 20 31 20 45 0 14 -9 34 -20 45 -11 11 -31
20 -45 20 -14 0 -34 -9 -45 -20z m68 -12 c30 -30 -2 -93 -36 -71 -23 14 -26
47 -7 67 20 19 27 20 43 4z"/>
<path d="M1440 496 c0 -63 10 -74 68 -73 l42 0 0 63 c0 50 -3 64 -15 64 -11 0
-15 -12 -15 -49 0 -35 -4 -51 -16 -55 -26 -10 -34 3 -34 55 0 37 -4 49 -15 49
-11 0 -15 -13 -15 -54z"/>
<path d="M1580 485 c0 -51 3 -65 15 -65 11 0 15 12 15 49 0 35 4 51 16 55 26
10 34 -3 34 -55 0 -38 4 -49 15 -49 13 0 15 11 13 56 -3 66 -23 88 -58 66 -12
-7 -20 -8 -20 -2 0 5 -7 10 -15 10 -12 0 -15 -14 -15 -65z"/>
<path d="M1960 484 c0 -49 3 -64 14 -64 11 0 16 14 18 47 2 39 7 50 28 60 14
7 23 13 20 14 -3 1 -22 3 -42 4 l-38 4 0 -65z"/>
<path d="M2062 534 c-45 -31 -14 -114 43 -114 14 0 34 9 45 20 58 58 -20 142
-88 94z m66 -16 c16 -16 15 -53 -2 -67 -23 -19 -56 4 -56 39 0 26 6 31 41 39
3 0 10 -4 17 -11z"/>
<path d="M2200 477 c0 -43 -5 -78 -12 -85 -16 -16 -1 -29 20 -16 24 16 31 174
7 174 -12 0 -15 -14 -15 -73z"/>
<path d="M2270 530 c-11 -11 -20 -31 -20 -45 0 -52 69 -85 104 -49 26 26 18
36 -15 19 -24 -13 -34 -14 -45 -4 -19 16 -18 31 4 28 49 -5 72 1 72 19 0 25
-31 52 -58 52 -12 0 -31 -9 -42 -20z m68 -17 c2 -9 -7 -13 -27 -13 -31 0 -42
14 -18 23 19 8 40 3 45 -10z"/>
<path d="M2410 530 c-41 -41 -13 -110 46 -110 19 0 54 28 54 43 0 13 -28 7
-33 -7 -13 -32 -61 -2 -55 34 4 32 35 50 51 30 16 -20 37 -23 37 -5 0 35 -69
46 -100 15z"/>
</g>
</svg>
